<svg width="24" height="24" viewBox="0 0 24 24" fill="none" xmlns="http://www.w3.org/2000/svg">
<path fill-rule="evenodd" clip-rule="evenodd" d="M23 8.58396V18C23 19.1046 22.1046 20 21 20H3C1.89543 20 1 19.1046 1 18V6C1 4.89543 1.89543 4 3 4H16C16 4.7111 16.1484 5.38754 16.416 6H12.75V9H11.25V6H3L3 18H11.25V15H12.75V18H21V9C21.7111 9 22.3875 8.85155 23 8.58396ZM17.59 15.745C16.99 15.745 16.4567 15.5976 15.99 15.3026C15.5233 15.0077 15.1567 14.579 14.89 14.0165C14.63 13.4472 14.5 12.7751 14.5 12C14.5 11.2249 14.63 10.5562 14.89 9.99371C15.1567 9.42441 15.5233 8.99229 15.99 8.69735C16.4567 8.40241 16.99 8.25494 17.59 8.25494C18.1833 8.25494 18.7133 8.40241 19.18 8.69735C19.6467 8.99229 20.01 9.42441 20.27 9.99371C20.5367 10.5562 20.67 11.2249 20.67 12C20.67 12.7751 20.5367 13.4472 20.27 14.0165C20.01 14.579 19.6467 15.0077 19.18 15.3026C18.7133 15.5976 18.1833 15.745 17.59 15.745ZM17.59 14.0783C17.9233 14.0783 18.1867 13.9137 18.38 13.5844C18.58 13.2483 18.68 12.7202 18.68 12C18.68 11.2798 18.58 10.7551 18.38 10.4258C18.1867 10.0897 17.9233 9.92169 17.59 9.92169C17.25 9.92169 16.98 10.0897 16.78 10.4258C16.5867 10.7551 16.49 11.2798 16.49 12C16.49 12.7202 16.5867 13.2483 16.78 13.5844C16.98 13.9137 17.25 14.0783 17.59 14.0783ZM9.31 15.5V13.93H6.61L7.93 12.71C8.39667 12.2833 8.71 11.9033 8.87 11.57C9.03667 11.23 9.12 10.87 9.12 10.49C9.12 10.0633 9.00333 9.68999 8.77 9.36999C8.54333 9.04332 8.22333 8.79332 7.81 8.61999C7.40333 8.44665 6.93333 8.35999 6.4 8.35999C5.72667 8.35999 5.14333 8.48999 4.65 8.74999C4.15667 9.00999 3.77333 9.36665 3.5 9.81999L4.97 10.64C5.11 10.42 5.28667 10.2533 5.5 10.14C5.72 10.02 5.96 9.95999 6.22 9.95999C6.51333 9.95999 6.73667 10.0233 6.89 10.15C7.04333 10.2767 7.12 10.4533 7.12 10.68C7.12 10.8533 7.07667 11.0267 6.99 11.2C6.90333 11.3667 6.73333 11.57 6.48 11.81L3.86 14.26V15.5H9.31ZM12 13C12.5523 13 13 12.5523 13 12C13 11.4477 12.5523 11 12 11C11.4477 11 11 11.4477 11 12C11 12.5523 11.4477 13 12 13ZM12 14C13.1046 14 14 13.1046 14 12C14 10.8954 13.1046 10 12 10C10.8954 10 10 10.8954 10 12C10 13.1046 10.8954 14 12 14Z" fill="#818198"/>
<circle cx="21" cy="4" r="3" fill="#73F0C0"/>
</svg>
