<svg width="32" height="32" viewBox="0 0 32 32" fill="none" xmlns="http://www.w3.org/2000/svg">
<circle cx="16" cy="16" r="9" stroke="#2E2E2E" stroke-width="2"/>
<path d="M22 22.5C22 22.5182 21.9687 22.7103 21.5517 23.0712C21.1752 23.397 20.6583 23.7095 20.1322 23.9938C19.1445 24.4987 17.7553 25 16 25C14.2906 25 12.8422 24.5073 11.8466 23.9858C11.3075 23.6816 10.8025 23.381 10.4322 23.0631C10.0322 22.7198 10 22.5356 10 22.5C10 22.1163 10.337 21.4998 11.4975 20.9196C12.5981 20.3692 14.1886 20 16 20C17.8114 20 19.4019 20.3692 20.5025 20.9196C21.663 21.4998 22 22.1163 22 22.5Z" stroke="#2E2E2E" stroke-width="2"/>
<path d="M18.5 14C18.5 15.7865 17.2595 17 16 17C14.7405 17 13.5 15.7865 13.5 14C13.5 12.2135 14.7405 11 16 11C17.2595 11 18.5 12.2135 18.5 14Z" stroke="#2E2E2E" stroke-width="2"/>
</svg>
