<svg width="24" height="24" viewBox="0 0 24 24" fill="none" xmlns="http://www.w3.org/2000/svg">
<path fill-rule="evenodd" clip-rule="evenodd" d="M12 20C16.4183 20 20 16.4183 20 12C20 7.58172 16.4183 4 12 4C7.58172 4 4 7.58172 4 12C4 16.4183 7.58172 20 12 20ZM22 12C22 17.5228 17.5228 22 12 22C6.47715 22 2 17.5228 2 12C2 6.47715 6.47715 2 12 2C17.5228 2 22 6.47715 22 12Z" fill="#818198"/>
<path d="M13.3954 10.0078L8.73095 8.87909L6.02173 12.8593L8.97167 16.6087L13.6201 14.8113L13.3954 10.0078Z" fill="#818198"/>
<path d="M11.4655 3.12537L8.28544 7.13256L4.25414 6.65076L6.39826 4.53072L8.75119 3.24584L11.4655 3.12537Z" fill="#818198"/>
<path d="M20.7425 9.31641L15.203 8.4538L14.7671 3.23383L15.6677 3.44111L18.0907 4.92782L20.0563 7.47948L20.7425 9.31641Z" fill="#818198"/>
<path d="M14.7764 20.4925L15.5375 15.9362L21.2552 14.4853L18.2655 19.0764L14.7764 20.4925Z" fill="#818198"/>
</svg>
