<svg width="24" height="24" viewBox="0 0 24 24" fill="none" xmlns="http://www.w3.org/2000/svg">
<path d="M17 6H8V10H17V6Z" fill="#818198"/>
<path d="M17 11H8V12H17V11Z" fill="#818198"/>
<path d="M8 13H12V18H8V13Z" fill="#818198"/>
<path d="M17 13H13V14H17V13Z" fill="#818198"/>
<path d="M13 15H17V16H13V15Z" fill="#818198"/>
<path d="M17 17H13V18H17V17Z" fill="#818198"/>
<path fill-rule="evenodd" clip-rule="evenodd" d="M6.5 3C5.67157 3 5 3.67157 5 4.5L5 21H17.5C18.8807 21 20 19.8807 20 18.5V4.5C20 3.67157 19.3284 3 18.5 3H6.5ZM7 5L7 19H17.5C17.7761 19 18 18.7761 18 18.5V5H7Z" fill="#818198"/>
<path d="M2 7.5C2 6.67157 2.67157 6 3.5 6H4V21C2.89543 21 2 20.1046 2 19V7.5Z" fill="#818198"/>
</svg>
